Coordinates
version=1
nRows=16
nColumns=63
inDegrees=yes

Units are S.I. units (second, meters, Newtons, ...)
If the header above contains a line with 'inDegrees', this indicates whether rotational values are in degrees (yes) or radians (no).

endheader
time	pelvis_tilt	pelvis_list	pelvis_rotation	pelvis_tx	pelvis_ty	pelvis_tz	hip_flexion_r	hip_adduction_r	hip_rotation_r	knee_angle_r	knee_angle_r_beta	ankle_angle_r	subtalar_angle_r	mtp_angle_r	hip_flexion_l	hip_adduction_l	hip_rotation_l	knee_angle_l	knee_angle_l_beta	ankle_angle_l	subtalar_angle_l	mtp_angle_l	L5_S1_Flex_Ext	L5_S1_Lat_Bending	L5_S1_axial_rotation	L4_L5_Flex_Ext	L4_L5_Lat_Bending	L4_L5_axial_rotation	L3_L4_Flex_Ext	L3_L4_Lat_Bending	L3_L4_axial_rotation	L2_L3_Flex_Ext	L2_L3_Lat_Bending	L2_L3_axial_rotation	L1_L2_Flex_Ext	L1_L2_Lat_Bending	L1_L2_axial_rotation	L1_T12_Flex_Ext	L1_T12_Lat_Bending	L1_T12_axial_rotation	Abs_r3	Abs_r2	Abs_r1	Abs_t1	Abs_t2	neck_flexion	neck_bending	neck_rotation	arm_flex_r	arm_add_r	arm_rot_r	elbow_flex_r	pro_sup_r	wrist_flex_r	wrist_dev_r	arm_flex_l	arm_add_l	arm_rot_l	elbow_flex_l	pro_sup_l	wrist_flex_l	wrist_dev_l
0.000000	0.184957	-5.859658	107.583503	0.228591	0.861240	0.661659	-2.428082	-0.771821	-1.318830	0.975036	0.017018	18.037108	-8.262392	0.000000	2.455656	2.150630	18.267970	6.625584	0.115638	15.576337	-15.443502	0.000000	-0.314864	-0.099325	-1.822953	-0.584735	-0.132102	-1.936888	-0.517291	-0.241498	-1.936888	-0.359859	-0.241498	-1.595084	-0.292383	-0.202543	-1.481150	-0.179914	-0.153854	-1.367215	-2.249045	-1.123583	-10.138720	0.000000	0.000000	22.679010	-2.427912	-0.296125	14.605518	-6.934510	151.282956	4.579619	2.546469	-9.406154	-8.188389	7.514557	-10.360651	121.912952	9.011882	2.881747	-6.185895	-16.090950
0.021277	0.289389	-5.669550	107.173125	0.228289	0.861167	0.660116	-2.794508	-0.633392	0.613393	0.932245	0.016271	16.973096	-10.185327	0.000000	1.769654	1.909603	18.324861	5.823658	0.101642	15.327203	-15.804182	0.000000	-0.304644	-0.082150	-1.783020	-0.565754	-0.109260	-1.894459	-0.500499	-0.199740	-1.894459	-0.348177	-0.199740	-1.560142	-0.282892	-0.167521	-1.448704	-0.174073	-0.127251	-1.337265	-2.176040	-0.929302	-9.916622	0.000000	0.000000	22.420911	-2.476183	-0.345974	14.461725	-6.780953	157.034970	4.082262	3.511019	-9.923507	-7.497065	7.134730	-10.318430	120.863107	9.266957	2.959864	-5.929174	-15.732717
0.042553	0.359827	-5.507964	106.815860	0.228132	0.861188	0.658901	-3.083337	-0.533848	2.148430	0.890526	0.015543	16.202280	-11.658613	0.000000	1.190554	1.719689	18.343907	5.134468	0.089613	15.135238	-16.090485	0.000000	-0.298515	-0.070549	-1.742953	-0.554373	-0.093831	-1.851888	-0.490431	-0.171534	-1.851888	-0.341173	-0.171534	-1.525084	-0.277201	-0.143864	-1.416149	-0.170572	-0.109281	-1.307215	-2.132264	-0.798068	-9.693782	0.000000	0.000000	22.190362	-2.513648	-0.413096	14.327868	-6.644051	161.547805	3.697365	4.238518	-10.294469	-7.037130	6.842259	-10.294456	119.993503	9.468395	3.028251	-5.710980	-15.429769
0.063830	0.400152	-5.373707	106.508431	0.228100	0.861293	0.657983	-3.300758	-0.469349	3.323932	0.850177	0.014838	15.694233	-12.727946	0.000000	0.711011	1.576273	18.329971	4.549889	0.079411	14.994351	-16.309449	0.000000	-0.295974	-0.063877	-1.703529	-0.549654	-0.084956	-1.809999	-0.486256	-0.155310	-1.809999	-0.338269	-0.155310	-1.490588	-0.274842	-0.130257	-1.384117	-0.169120	-0.098945	-1.277647	-2.114115	-0.722586	-9.474517	0.000000	0.000000	21.985608	-2.541976	-0.490771	14.204150	-6.524422	164.920621	3.417814	4.752936	-10.531520	-6.782211	6.627522	-10.286221	119.288343	9.620323	3.086922	-5.527521	-15.178383
0.085106	0.414245	-5.265583	106.247556	0.228175	0.861468	0.657330	-3.452958	-0.436051	4.177552	0.811497	0.014163	15.418527	-13.439019	0.000000	0.323681	1.474738	18.287915	4.061792	0.070892	14.898456	-16.468107	0.000000	-0.296517	-0.061488	-1.665524	-0.550661	-0.081779	-1.769619	-0.487147	-0.149501	-1.769619	-0.338889	-0.149501	-1.457333	-0.275345	-0.125386	-1.353238	-0.169430	-0.095244	-1.249143	-2.117989	-0.695561	-9.263143	0.000000	0.000000	21.804896	-2.562836	-0.572277	14.090770	-6.422682	167.252576	3.236496	5.078243	-10.647138	-6.705936	6.480899	-10.291217	118.731828	9.726872	3.135891	-5.375007	-14.974838
0.106383	0.405987	-5.182397	106.029958	0.228339	0.861702	0.656911	-3.546127	-0.430115	4.746941	0.774785	0.013523	15.344734	-13.837525	0.000000	0.021221	1.410469	18.222601	3.662051	0.063915	14.841464	-16.573495	0.000000	-0.299638	-0.062737	-1.629713	-0.556457	-0.083441	-1.731571	-0.492275	-0.152540	-1.731571	-0.342456	-0.152540	-1.425999	-0.278244	-0.127934	-1.324142	-0.171213	-0.097180	-1.222285	-2.140282	-0.709699	-9.063977	0.000000	0.000000	21.646474	-2.577896	-0.650895	13.987930	-6.339450	168.642828	3.146299	5.238409	-10.653803	-6.781933	6.392770	-10.306936	118.308164	9.792169	3.175172	-5.249647	-14.815409
0.127660	0.379259	-5.122954	105.852357	0.228573	0.861984	0.656697	-3.586452	-0.447696	5.069750	0.740341	0.012921	15.442427	-13.969160	0.000000	-0.203713	1.378849	18.138892	3.342538	0.058338	14.817287	-16.632649	0.000000	-0.304833	-0.066981	-1.596874	-0.566105	-0.089085	-1.696679	-0.500810	-0.162858	-1.696679	-0.348393	-0.162858	-1.397265	-0.283068	-0.136588	-1.297460	-0.174181	-0.103754	-1.197656	-2.177391	-0.757704	-8.881336	0.000000	0.000000	21.508588	-2.588825	-0.719903	13.895830	-6.275343	169.190537	3.140110	5.257406	-10.563993	-6.983830	6.353512	-10.330872	118.001552	9.820345	3.204778	-5.147650	-14.696375
0.148936	0.337943	-5.086061	105.711475	0.228859	0.862299	0.656655	-3.580122	-0.484955	5.183632	0.708463	0.012365	15.681177	-13.879617	0.000000	-0.358464	1.375263	18.041650	3.095126	0.054020	14.819837	-16.652605	0.000000	-0.311598	-0.073574	-1.567783	-0.578668	-0.097853	-1.665769	-0.511924	-0.178887	-1.665769	-0.356125	-0.178887	-1.371810	-0.289350	-0.150032	-1.273823	-0.178047	-0.113966	-1.175837	-2.225712	-0.832281	-8.719536	0.000000	0.000000	21.389485	-2.597292	-0.772581	13.814670	-6.230978	168.994862	3.210815	5.159203	-10.390189	-7.285254	6.353505	-10.360516	117.796196	9.815527	3.224724	-5.065226	-14.614011
0.170213	0.285919	-5.070521	105.604031	0.229178	0.862638	0.656756	-3.533325	-0.538048	5.126239	0.679450	0.011859	16.030557	-13.614589	0.000000	-0.450376	1.395095	17.935738	2.911688	0.050819	14.843024	-16.640396	0.000000	-0.319428	-0.081871	-1.543214	-0.593210	-0.108888	-1.639665	-0.524788	-0.199060	-1.639665	-0.365074	-0.199060	-1.350312	-0.296621	-0.166950	-1.253861	-0.182521	-0.126817	-1.157411	-2.281642	-0.926136	-8.582894	0.000000	0.000000	21.287413	-2.604965	-0.802209	13.744653	-6.206971	168.154960	3.351303	4.967770	-10.144869	-7.659833	6.383128	-10.393361	117.676298	9.781845	3.235022	-4.998584	-14.564597
0.191489	0.227068	-5.075140	105.526747	0.229511	0.862987	0.656967	-3.452249	-0.603134	4.935222	0.653601	0.011407	16.460139	-13.219772	0.000000	-0.486793	1.433728	17.826018	2.784097	0.048592	14.880762	-16.603060	0.000000	-0.327819	-0.091227	-1.523945	-0.608793	-0.121331	-1.619192	-0.538574	-0.221808	-1.619192	-0.374664	-0.221808	-1.333452	-0.304413	-0.186029	-1.238206	-0.187316	-0.141310	-1.142959	-2.341578	-1.031974	-8.475727	0.000000	0.000000	21.200618	-2.613513	-0.802065	13.685978	-6.203941	166.769991	3.554459	4.707079	-9.840512	-8.081195	6.432761	-10.426899	117.626063	9.723428	3.235687	-4.943934	-14.544408
0.212766	0.165273	-5.098724	105.476344	0.229841	0.863334	0.657259	-3.343082	-0.676371	4.648233	0.631216	0.011017	16.939495	-12.740857	0.000000	-0.475058	1.486547	17.717353	2.704225	0.047198	14.926961	-16.547631	0.000000	-0.336266	-0.100997	-1.510752	-0.624480	-0.134326	-1.605174	-0.552452	-0.245564	-1.605174	-0.384319	-0.245564	-1.321908	-0.312257	-0.205953	-1.227486	-0.192143	-0.156445	-1.133064	-2.401917	-1.142500	-8.402350	0.000000	0.000000	21.127347	-2.624605	-0.765429	13.638846	-6.222504	164.939113	3.813171	4.401099	-9.489598	-8.522967	6.492782	-10.458623	117.629694	9.644404	3.226733	-4.897485	-14.549722
0.234043	0.095479	-5.161458	105.446584	0.230123	0.863628	0.657509	-3.216752	-0.768267	4.317674	0.624656	0.010902	17.372897	-12.259093	0.000000	-0.412802	1.564450	17.619325	2.666783	0.046544	14.943066	-16.487611	0.000000	-0.341382	-0.111675	-1.514542	-0.633981	-0.148528	-1.609201	-0.560857	-0.271527	-1.609201	-0.390166	-0.271527	-1.325224	-0.317007	-0.227728	-1.230565	-0.195066	-0.172985	-1.135906	-2.438458	-1.263291	-8.423427	0.000000	0.000000	21.095911	-2.637745	-0.616510	13.619421	-6.258537	162.818003	4.125880	4.167951	-9.092835	-8.874354	6.501146	-10.522345	117.305527	9.638929	3.235922	-4.838779	-14.591703
0.255319	0.038625	-5.235062	105.440508	0.230323	0.863889	0.657781	-3.082421	-0.852311	4.079391	0.609315	0.010635	17.772203	-11.940383	0.000000	-0.322177	1.638535	17.547503	2.654673	0.046333	14.965913	-16.437094	0.000000	-0.345347	-0.119784	-1.525922	-0.641344	-0.159313	-1.621293	-0.567371	-0.291243	-1.621293	-0.394697	-0.291243	-1.335182	-0.320689	-0.244264	-1.239812	-0.197331	-0.185546	-1.144442	-2.466780	-1.355023	-8.486723	0.000000	0.000000	21.058107	-2.651124	-0.403329	13.605659	-6.346772	160.167060	4.525611	3.926618	-8.666137	-9.178303	6.502833	-10.546861	117.214942	9.560334	3.212232	-4.777521	-14.638737
0.276596	-0.002831	-5.315695	105.434499	0.230463	0.864116	0.658047	-2.940315	-0.927038	3.907864	0.593098	0.010352	18.127949	-11.704790	0.000000	-0.217171	1.703998	17.487489	2.654380	0.046328	14.987116	-16.402215	0.000000	-0.348686	-0.125068	-1.540149	-0.647545	-0.166341	-1.636408	-0.572856	-0.304091	-1.636408	-0.398513	-0.304091	-1.347630	-0.323790	-0.255040	-1.251371	-0.199239	-0.193731	-1.155112	-2.490629	-1.414800	-8.565847	0.000000	0.000000	21.015698	-2.673257	-0.143287	13.598788	-6.479892	157.247039	4.985334	3.689803	-8.226630	-9.415160	6.499610	-10.534178	117.349402	9.418452	3.155617	-4.717312	-14.683378
0.297872	-0.022526	-5.404304	105.438171	0.230523	0.864298	0.658286	-2.790441	-0.985032	3.792116	0.579361	0.010112	18.417731	-11.547058	0.000000	-0.099043	1.754103	17.450724	2.662943	0.046477	14.998360	-16.382948	0.000000	-0.350734	-0.126905	-1.559551	-0.651348	-0.168784	-1.657023	-0.576220	-0.308558	-1.657023	-0.400854	-0.308558	-1.364608	-0.325691	-0.258785	-1.267136	-0.200409	-0.196576	-1.169664	-2.505256	-1.435578	-8.673758	0.000000	0.000000	20.961985	-2.719722	0.155970	13.601128	-6.645677	154.306311	5.477811	3.496987	-7.803643	-9.578842	6.485510	-10.488885	117.633500	9.229758	3.068941	-4.635992	-14.719025
0.319149	-0.017891	-5.497660	105.453081	0.230497	0.864433	0.658479	-2.637598	-1.021796	3.718630	0.572425	0.009991	18.627872	-11.446680	0.000000	0.024827	1.784799	17.445204	2.675393	0.046694	14.985043	-16.390718	0.000000	-0.351581	-0.125063	-1.584514	-0.652921	-0.166334	-1.683546	-0.577612	-0.304079	-1.683546	-0.401822	-0.304079	-1.386450	-0.326478	-0.255029	-1.287418	-0.200893	-0.193723	-1.188386	-2.511307	-1.414741	-8.812593	0.000000	0.000000	20.894987	-2.797660	0.486619	13.613093	-6.824672	151.664180	5.955881	3.370603	-7.426271	-9.666898	6.457780	-10.424482	117.947227	9.031962	2.980930	-4.546803	-14.754850
